# Blender v2.79 (sub 0) OBJ File: 'spaceship_1.blend'
# www.blender.org
o Cone
v 0.000000 -0.544187 0.237889
v 0.000000 -0.297665 -0.240766
v 0.046975 -0.539561 0.237944
v 0.092144 -0.525860 0.238108
v 0.133772 -0.503611 0.238374
v 0.170260 -0.473669 0.238732
v 0.200204 -0.437184 0.239168
v 0.222455 -0.395558 0.239665
v 0.236157 -0.350392 0.240205
v 0.240784 -0.303421 0.240766
v 0.236157 -0.256450 0.241328
v 0.222455 -0.211284 0.241868
v 0.200204 -0.169658 0.242365
v 0.170260 -0.133173 0.242801
v 0.133772 -0.103231 0.243159
v 0.092144 -0.080982 0.243425
v 0.046975 -0.067281 0.243589
v -0.000000 -0.062654 0.243644
v -0.046975 -0.067281 0.243589
v -0.092144 -0.080982 0.243425
v -0.133772 -0.103231 0.243159
v -0.170260 -0.133173 0.242801
v -0.200204 -0.169658 0.242365
v -0.222455 -0.211284 0.241868
v -0.236157 -0.256450 0.241328
v -0.240784 -0.303421 0.240766
v -0.236157 -0.350392 0.240205
v -0.222455 -0.395558 0.239665
v -0.200204 -0.437184 0.239168
v -0.170260 -0.473669 0.238732
v -0.133772 -0.503611 0.238374
v -0.092144 -0.525860 0.238108
v -0.046974 -0.539561 0.237944
vn 0.0878 -0.8856 -0.4561
vn 0.2599 -0.8514 -0.4557
vn 0.4220 -0.7842 -0.4549
vn 0.5680 -0.6867 -0.4537
vn 0.6921 -0.5626 -0.4522
vn 0.7896 -0.4167 -0.4505
vn 0.8567 -0.2545 -0.4486
vn 0.8910 -0.0824 -0.4465
vn 0.8910 0.0931 -0.4444
vn 0.8567 0.2652 -0.4424
vn 0.7896 0.4273 -0.4404
vn 0.6921 0.5732 -0.4387
vn 0.5680 0.6973 -0.4372
vn 0.4220 0.7948 -0.4360
vn 0.2599 0.8620 -0.4352
vn 0.0878 0.8962 -0.4348
vn -0.0878 0.8962 -0.4348
vn -0.2599 0.8620 -0.4352
vn -0.4220 0.7948 -0.4360
vn -0.5680 0.6973 -0.4372
vn -0.6921 0.5732 -0.4387
vn -0.7896 0.4273 -0.4404
vn -0.8567 0.2652 -0.4424
vn -0.8910 0.0931 -0.4444
vn -0.8910 -0.0824 -0.4465
vn -0.8567 -0.2545 -0.4486
vn -0.7896 -0.4167 -0.4505
vn -0.6921 -0.5626 -0.4522
vn -0.5680 -0.6867 -0.4537
vn -0.4220 -0.7842 -0.4549
vn -0.2599 -0.8514 -0.4557
vn -0.0878 -0.8856 -0.4561
vn 0.0000 -0.0120 0.9999
s off
f 1//1 2//1 3//1
f 3//2 2//2 4//2
f 4//3 2//3 5//3
f 5//4 2//4 6//4
f 6//5 2//5 7//5
f 7//6 2//6 8//6
f 8//7 2//7 9//7
f 9//8 2//8 10//8
f 10//9 2//9 11//9
f 11//10 2//10 12//10
f 12//11 2//11 13//11
f 13//12 2//12 14//12
f 14//13 2//13 15//13
f 15//14 2//14 16//14
f 16//15 2//15 17//15
f 17//16 2//16 18//16
f 18//17 2//17 19//17
f 19//18 2//18 20//18
f 20//19 2//19 21//19
f 21//20 2//20 22//20
f 22//21 2//21 23//21
f 23//22 2//22 24//22
f 24//23 2//23 25//23
f 25//24 2//24 26//24
f 26//25 2//25 27//25
f 27//26 2//26 28//26
f 28//27 2//27 29//27
f 29//28 2//28 30//28
f 30//29 2//29 31//29
f 31//30 2//30 32//30
f 32//31 2//31 33//31
f 33//32 2//32 1//32
f 17//33 25//33 33//33
f 33//33 1//33 3//33
f 3//33 4//33 33//33
f 5//33 6//33 7//33
f 7//33 8//33 5//33
f 9//33 10//33 11//33
f 11//33 12//33 9//33
f 13//33 14//33 15//33
f 15//33 16//33 17//33
f 17//33 18//33 19//33
f 19//33 20//33 17//33
f 21//33 22//33 23//33
f 23//33 24//33 25//33
f 25//33 26//33 27//33
f 27//33 28//33 25//33
f 29//33 30//33 31//33
f 31//33 32//33 33//33
f 33//33 4//33 5//33
f 5//33 8//33 9//33
f 9//33 12//33 13//33
f 13//33 15//33 17//33
f 17//33 20//33 21//33
f 21//33 23//33 25//33
f 25//33 28//33 29//33
f 29//33 31//33 25//33
f 33//33 5//33 9//33
f 9//33 13//33 33//33
f 17//33 21//33 25//33
f 25//33 31//33 33//33
f 33//33 13//33 17//33