# Blender v2.79 (sub 0) OBJ File: 'spaceship_1.blend'
# www.blender.org
o Plane
v -0.000000 0.000000 1.644840
v -0.773830 -0.083193 -0.655078
v -1.045109 -0.436919 -0.530594
v -1.045109 -0.436919 -0.176865
v -1.045109 -0.436919 0.176865
v -1.045109 -0.436919 0.530594
v -1.045109 -0.436919 0.884323
v 1.041834 -0.436891 0.884323
v 1.041834 -0.436891 0.530594
v 1.041834 -0.436891 0.176865
v 1.041834 -0.436891 -0.176865
v 1.041834 -0.436891 -0.530594
v 0.776559 -0.083210 -0.655078
v 0.000000 0.000000 -1.238052
v -0.773830 -0.083193 0.655078
v -0.773830 -0.083193 0.393047
v -0.773830 -0.083193 0.131016
v -0.773830 -0.083193 -0.131016
v -0.773830 -0.083193 -0.393047
v -0.530594 0.000000 0.884323
v -0.530594 0.000000 0.530594
v -0.530594 0.000000 0.176865
v -0.530594 0.000000 -0.176865
v -0.530594 0.000000 -0.530594
v -0.530594 0.000000 -0.884323
v -0.176865 0.181066 0.884323
v -0.176865 0.181066 0.530594
v -0.176865 0.000000 0.176865
v -0.176865 0.353234 -0.176865
v -0.176865 0.353234 -0.530594
v -0.176865 0.176823 -0.884323
v 0.176865 0.181066 0.884323
v 0.176865 0.181066 0.530594
v 0.176865 0.000000 0.176865
v 0.176865 0.353234 -0.176865
v 0.176865 0.353234 -0.530594
v 0.176865 0.176823 -0.884323
v 0.530594 0.000000 0.884323
v 0.530594 0.000000 0.530594
v 0.530594 0.000000 0.176865
v 0.530594 0.000000 -0.176865
v 0.530594 0.000000 -0.530594
v 0.530594 0.000000 -0.884323
v 0.776559 -0.083210 0.655078
v 0.776559 -0.083210 0.393047
v 0.776559 -0.083210 0.131016
v 0.776559 -0.083210 -0.131016
v 0.776559 -0.083210 -0.393047
vn -0.4606 -0.5572 -0.6909
vn -0.3713 0.7429 -0.5570
vn 0.0000 0.8945 -0.4471
vn 0.3713 0.7429 -0.5570
vn 0.4645 -0.5465 -0.6968
vn -0.5850 0.7066 0.3980
vn -0.7935 0.6086 0.0000
vn -0.6338 0.6346 0.4422
vn -0.3236 0.9462 0.0000
vn -0.4342 0.8483 0.3030
vn -0.4557 0.8902 0.0000
vn 0.0000 1.0000 0.0000
vn -0.7066 0.7076 0.0000
vn -0.4471 0.8945 0.0000
vn 0.0000 0.9728 0.2316
vn 0.0000 0.8902 -0.4557
vn 0.0000 0.7076 0.7066
vn 0.0000 0.8949 -0.4463
vn 0.4342 0.8483 0.3030
vn 0.4557 0.8902 0.0000
vn 0.4146 0.8100 -0.4146
vn 0.5771 0.5779 0.5771
vn 0.7066 0.7076 0.0000
vn 0.6663 0.6673 -0.3328
vn 0.6255 0.6467 0.4364
vn 0.3205 0.9473 0.0000
vn 0.5880 0.7018 0.4023
vn 0.8000 0.6000 0.0000
vn -0.4146 0.8100 -0.4146
vn -0.5771 0.5779 0.5771
vn -0.6663 0.6673 -0.3328
vn 0.4471 0.8945 0.0000
s off
f 2//1 25//1 14//1
f 25//2 31//2 14//2
f 31//3 37//3 14//3
f 37//4 43//4 14//4
f 43//5 13//5 14//5
f 1//6 15//6 7//6
f 15//7 6//7 7//7
f 16//7 5//7 6//7
f 17//7 4//7 5//7
f 4//7 19//7 3//7
f 3//7 19//7 2//7
f 1//8 20//8 15//8
f 15//9 21//9 16//9
f 16//9 22//9 17//9
f 22//9 18//9 17//9
f 23//9 19//9 18//9
f 24//9 2//9 19//9
f 1//10 26//10 20//10
f 26//11 21//11 20//11
f 21//12 28//12 22//12
f 28//12 23//12 22//12
f 29//13 24//13 23//13
f 24//14 31//14 25//14
f 1//15 32//15 26//15
f 32//12 27//12 26//12
f 33//16 28//16 27//16
f 34//17 29//17 28//17
f 35//12 30//12 29//12
f 36//18 31//18 30//18
f 1//19 38//19 32//19
f 38//20 33//20 32//20
f 39//21 34//21 33//21
f 34//22 41//22 35//22
f 41//23 36//23 35//23
f 42//24 37//24 36//24
f 1//25 44//25 38//25
f 44//26 39//26 38//26
f 45//26 40//26 39//26
f 46//26 41//26 40//26
f 41//26 48//26 42//26
f 42//26 13//26 43//26
f 1//27 8//27 44//27
f 44//28 9//28 45//28
f 45//28 10//28 46//28
f 10//28 47//28 46//28
f 11//28 48//28 47//28
f 48//28 12//28 13//28
f 15//7 16//7 6//7
f 16//7 17//7 5//7
f 17//7 18//7 4//7
f 4//7 18//7 19//7
f 15//9 20//9 21//9
f 16//9 21//9 22//9
f 22//9 23//9 18//9
f 23//9 24//9 19//9
f 24//9 25//9 2//9
f 26//11 27//11 21//11
f 21//29 27//29 28//29
f 28//30 29//30 23//30
f 29//13 30//13 24//13
f 24//31 30//31 31//31
f 32//12 33//12 27//12
f 33//16 34//16 28//16
f 34//17 35//17 29//17
f 35//12 36//12 30//12
f 36//18 37//18 31//18
f 38//20 39//20 33//20
f 39//12 40//12 34//12
f 34//12 40//12 41//12
f 41//23 42//23 36//23
f 42//32 43//32 37//32
f 44//26 45//26 39//26
f 45//26 46//26 40//26
f 46//26 47//26 41//26
f 41//26 47//26 48//26
f 42//26 48//26 13//26
f 44//28 8//28 9//28
f 45//28 9//28 10//28
f 10//28 11//28 47//28
f 11//28 12//28 48//28
