# Blender v2.79 (sub 0) OBJ File: 'spaceship_1.blend'
# www.blender.org
o Cube
v 1.000000 -1.000000 -1.000000
v 1.000000 -1.000000 1.000000
v 4.000898 0.899363 -1.488541
v 4.000899 1.000000 -1.488540
v 0.949451 0.761394 -0.999999
v 0.999999 1.000000 1.000001
v 2.985067 1.000000 -2.347275
v 2.985066 0.899363 -2.347275
v 1.000000 -0.689157 -2.717781
v 2.985065 1.000000 0.488514
v 0.897387 0.076266 -3.488926
v 2.985067 1.000000 -0.999999
v 0.253551 -1.000000 -5.191728
v 2.882459 0.214735 0.486744
v 0.253550 -0.741680 -5.191728
v 2.985066 0.563152 -1.000000
v 4.000897 1.000000 0.684413
v 4.000899 1.000000 -0.999999
v 3.981742 0.575118 0.692023
v 4.000898 0.711234 0.297955
v 4.771155 0.930954 -0.758727
v 4.771155 1.000000 -0.758727
v 4.771154 1.000000 1.000001
v 4.771155 1.000000 -0.521779
v 4.771155 0.716836 1.000000
v 4.771155 0.896464 -0.521780
v 1.992533 0.044432 -1.000000
v 1.992534 0.727062 -2.877844
v 1.992532 1.000000 0.488514
v 2.026707 0.436912 -2.273365
v 1.992533 -0.206294 0.488514
v 1.992534 1.000000 -0.999999
v 5.619928 0.926441 0.806358
v 5.619928 1.000000 0.806359
v 5.619927 1.000000 1.579300
v 5.619928 1.000000 1.043306
v 5.619928 0.823497 1.579300
v 5.619928 0.891425 1.043306
v 0.754983 -0.509966 2.044316
v 0.754983 0.509966 2.044317
v 0.788136 -1.000000 -1.000000
v 0.788136 -1.000000 1.000000
v 0.838686 0.761394 -1.000000
v 0.788135 1.000000 1.000000
v 0.788136 -0.755014 -2.717781
v 0.788136 0.569776 -2.717781
v 0.199832 -1.000000 -5.191728
v 0.199832 -0.741680 -5.191728
v 0.306203 -0.471499 1.808008
v 0.315427 0.504614 1.834045
v 3.991320 0.787559 0.688218
v 1.000000 0.000000 1.000000
v 4.000898 0.949681 -1.488541
v 0.948693 -0.306446 -3.103354
v 2.985066 0.949681 -2.347275
v 2.933762 0.607367 0.487629
v 0.253550 -0.870840 -5.191728
v 4.771154 0.858418 1.000000
v 4.771155 0.965477 -0.758727
v 1.992533 0.396853 0.488514
v 2.009620 0.581987 -2.575605
v 5.619927 0.911749 1.579300
v 5.619928 0.945713 1.043306
v 5.619928 0.963220 0.806359
v 0.754983 0.000000 2.044316
v 0.548438 0.002677 1.823737
v 0.199832 -0.870840 -5.191728
v 0.285495 -0.334190 2.177514
v 0.292072 0.361912 2.196082
v 0.458241 0.003962 2.188731
v -1.000000 -1.000000 -1.000000
v -1.000000 -1.000000 1.000000
v -4.000898 0.899363 -1.488541
v -4.000899 1.000000 -1.488540
v -0.949451 0.761394 -0.999999
v -0.999999 1.000000 1.000001
v -2.985067 1.000000 -2.347275
v -2.985066 0.899363 -2.347275
v -1.000000 -0.689157 -2.717781
v -2.985065 1.000000 0.488514
v -0.897387 0.076266 -3.488926
v -2.985067 1.000000 -0.999999
v -0.253551 -1.000000 -5.191728
v -2.882459 0.214735 0.486744
v -0.253550 -0.741680 -5.191728
v -2.985066 0.563152 -1.000000
v 0.000000 -1.000000 -1.000000
v 0.000000 -1.000000 1.000000
v 0.000000 1.000000 -1.000000
v 0.000000 1.000000 1.000000
v 0.000000 -1.000000 -2.717782
v 0.000000 1.000000 -2.717781
v 0.000000 -1.000000 -5.191728
v 0.000000 -0.741680 -5.191728
v -4.000897 1.000000 0.684413
v -4.000899 1.000000 -0.999999
v -3.981742 0.575118 0.692023
v -4.000898 0.711234 0.297955
v -4.771155 0.930954 -0.758727
v -4.771155 1.000000 -0.758727
v -4.771154 1.000000 1.000001
v -4.771155 1.000000 -0.521779
v -4.771155 0.716836 1.000000
v -4.771155 0.896464 -0.521780
v -1.992533 0.044432 -1.000000
v -1.992534 0.727062 -2.877844
v -1.992532 1.000000 0.488514
v -2.026707 0.436912 -2.273365
v -1.992533 -0.206294 0.488514
v -1.992534 1.000000 -0.999999
v -5.619928 0.926441 0.806358
v -5.619928 1.000000 0.806359
v -5.619927 1.000000 1.579300
v -5.619928 1.000000 1.043306
v -5.619928 0.823497 1.579300
v -5.619928 0.891425 1.043306
v -0.754983 -0.509966 2.044316
v -0.754983 0.509966 2.044317
v 0.000000 -0.509966 1.828050
v 0.000000 0.509966 1.828050
v -0.788136 -1.000000 -1.000000
v -0.788136 -1.000000 1.000000
v -0.838686 0.761394 -1.000000
v -0.788135 1.000000 1.000000
v -0.788136 -0.755014 -2.717781
v -0.788136 0.569776 -2.717781
v -0.199832 -1.000000 -5.191728
v -0.199832 -0.741680 -5.191728
v -0.306203 -0.471499 1.808008
v -0.315427 0.504614 1.834045
v -3.991320 0.787559 0.688218
v -1.000000 0.000000 1.000000
v -4.000898 0.949681 -1.488541
v -0.948693 -0.306446 -3.103354
v -2.985066 0.949681 -2.347275
v -2.933762 0.607367 0.487629
v -0.253550 -0.870840 -5.191728
v 0.000000 -0.870840 -5.191728
v -4.771154 0.858418 1.000000
v -4.771155 0.965477 -0.758727
v -1.992533 0.396853 0.488514
v -2.009620 0.581987 -2.575605
v -5.619927 0.911749 1.579300
v -5.619928 0.945713 1.043306
v -5.619928 0.963220 0.806359
v -0.754983 0.000000 2.044316
v 0.000000 -0.361623 2.191807
v -0.548438 0.002677 1.823737
v -0.199832 -0.870840 -5.191728
v 0.000000 0.365729 2.191807
v -0.285495 -0.334190 2.177514
v -0.292072 0.361912 2.196082
v -0.458241 0.003962 2.188731
vn 0.6456 0.0000 -0.7637
vn 0.4043 -0.8154 -0.4143
vn -0.1916 0.9713 -0.1412
vn 0.3467 -0.8917 -0.2911
vn 0.2685 -0.9580 -0.1009
vn 0.0000 0.9938 -0.1109
vn 0.4482 -0.8576 -0.2523
vn 0.1267 -0.9865 -0.1039
vn 0.0000 1.0000 0.0000
vn 0.4225 -0.8938 -0.1505
vn 0.2410 0.8326 -0.4987
vn 0.9488 0.0000 -0.3158
vn -0.1906 0.0262 0.9813
vn 0.2967 -0.9547 0.0240
vn 0.0000 0.0000 -1.0000
vn 0.2941 -0.9462 -0.1349
vn 0.0015 -0.0024 1.0000
vn -0.0000 0.8598 0.5107
vn 0.2721 0.9563 -0.1072
vn 0.0000 -1.0000 0.0000
vn 0.2550 -0.9566 -0.1414
vn 0.6878 -0.0000 -0.7259
vn 0.2811 -0.9112 -0.3011
vn -0.3712 -0.0000 0.9285
vn 0.4581 0.0000 0.8889
vn -0.2230 0.9748 -0.0000
vn 0.6245 -0.7810 0.0000
vn 0.7193 -0.6836 -0.1237
vn -0.3957 0.8875 -0.2360
vn 0.6975 -0.6299 -0.3418
vn 1.0000 0.0000 0.0000
vn 0.8791 0.0000 -0.4767
vn 0.2060 -0.9708 -0.1230
vn -0.5637 -0.0000 0.8260
vn 0.1073 -0.9206 0.3754
vn -0.2851 -0.8712 0.3997
vn 0.9736 0.0000 0.2284
vn 0.1401 -0.8521 0.5043
vn -0.7299 -0.0000 0.6835
vn 0.0000 0.9930 -0.1185
vn -0.0000 0.9053 0.4248
vn 0.2925 -0.9410 -0.1703
vn 0.2967 -0.9545 0.0304
vn 0.4076 0.7467 -0.5257
vn 0.2736 0.9618 0.0000
vn -0.4434 0.1975 0.8743
vn 0.8870 0.4073 0.2178
vn 0.7184 -0.4435 -0.5359
vn -0.3791 -0.0000 0.9253
vn 0.0000 -0.0023 1.0000
vn -0.1893 0.0261 0.9816
vn 0.9354 0.0000 -0.3537
vn 0.3681 -0.8299 -0.4192
vn 0.8666 -0.4499 0.2157
vn 0.0088 0.9301 0.3672
vn -0.6456 0.0000 -0.7637
vn -0.4043 -0.8154 -0.4143
vn 0.1916 0.9713 -0.1412
vn -0.3720 -0.9091 -0.1874
vn -0.2005 -0.9505 -0.2372
vn -0.4482 -0.8576 -0.2523
vn -0.1267 -0.9865 -0.1039
vn -0.4225 -0.8938 -0.1505
vn -0.2410 0.8326 -0.4987
vn -0.9523 -0.1436 -0.2693
vn 0.1907 0.0227 0.9814
vn -0.2967 -0.9547 0.0240
vn -0.0020 -0.0000 1.0000
vn -0.2721 0.9563 -0.1072
vn -0.2519 -0.9576 -0.1394
vn -0.6878 -0.0000 -0.7259
vn -0.2811 -0.9112 -0.3011
vn 0.3684 0.0332 0.9291
vn -0.4581 0.0000 0.8889
vn 0.0602 0.9913 -0.1167
vn -0.6245 -0.7810 0.0000
vn -0.7193 -0.6836 -0.1237
vn 0.3957 0.8875 -0.2360
vn -0.6298 -0.5078 -0.5878
vn -1.0000 0.0000 0.0000
vn -0.8791 0.0000 -0.4767
vn -0.2058 -0.9719 -0.1147
vn 0.5637 0.0000 0.8260
vn -0.1393 -0.9257 0.3518
vn 0.0000 -0.9053 0.4248
vn -0.9736 0.0000 0.2284
vn 0.0000 -0.8369 0.5474
vn 0.7299 -0.0000 0.6835
vn 0.0000 -0.9900 -0.1412
vn -0.2967 -0.9545 0.0304
vn -0.4076 0.7467 -0.5257
vn -0.2736 0.9618 0.0000
vn -0.8870 0.4073 0.2178
vn -0.7184 -0.4435 -0.5359
vn 0.3736 0.0334 0.9270
vn -0.0009 -0.0000 1.0000
vn 0.1900 0.0226 0.9815
vn -0.9495 -0.1502 -0.2755
vn -0.3681 -0.8299 -0.4192
vn -0.8666 -0.4499 0.2157
vn -0.0088 0.9301 0.3672
vn 0.4714 0.0000 -0.8819
vn 0.3720 -0.9091 -0.1874
vn 0.2005 -0.9505 -0.2372
vn 0.9056 0.4037 -0.1301
vn 0.4100 -0.8849 -0.2208
vn 0.1744 -0.9744 -0.1418
vn 0.4562 -0.8729 -0.1731
vn 0.0000 0.9014 -0.4330
vn 0.9523 -0.1436 -0.2693
vn -0.1907 0.0227 0.9814
vn 0.0020 -0.0000 1.0000
vn 0.0049 0.8606 0.5093
vn 0.2519 -0.9576 -0.1394
vn 0.1133 -0.9867 -0.1165
vn -0.3684 0.0332 0.9291
vn -0.0602 0.9913 -0.1167
vn 0.7201 -0.6843 -0.1153
vn 0.7608 -0.6256 -0.1724
vn -0.2208 0.9652 -0.1403
vn 0.6298 -0.5078 -0.5878
vn 0.2058 -0.9719 -0.1147
vn 0.1393 -0.9257 0.3518
vn -0.4195 -0.2129 0.8824
vn -0.2070 0.8882 0.4102
vn 0.0000 -0.9951 0.0985
vn 0.0000 0.8835 -0.4684
vn 0.4762 0.8723 -0.1113
vn -0.3736 0.0334 0.9270
vn 0.0009 -0.0000 1.0000
vn -0.1900 0.0226 0.9815
vn 0.9495 -0.1502 -0.2755
vn 0.2279 0.0000 -0.9737
vn 0.0068 0.9296 0.3686
vn -0.4714 0.0000 -0.8819
vn -0.3467 -0.8917 -0.2911
vn -0.2685 -0.9580 -0.1009
vn -0.9056 0.4037 -0.1301
vn -0.4100 -0.8849 -0.2208
vn -0.1744 -0.9744 -0.1418
vn -0.4562 -0.8729 -0.1731
vn -0.9488 0.0000 -0.3158
vn 0.1906 0.0262 0.9813
vn -0.2941 -0.9462 -0.1349
vn -0.0015 -0.0024 1.0000
vn -0.0049 0.8606 0.5093
vn -0.2550 -0.9566 -0.1414
vn -0.1133 -0.9867 -0.1165
vn 0.3712 -0.0000 0.9285
vn 0.2230 0.9748 -0.0000
vn -0.7201 -0.6843 -0.1153
vn -0.7608 -0.6256 -0.1724
vn 0.2208 0.9652 -0.1403
vn -0.6975 -0.6299 -0.3418
vn -0.2060 -0.9708 -0.1230
vn -0.1073 -0.9206 0.3754
vn 0.2851 -0.8712 0.3997
vn -0.1401 -0.8521 0.5043
vn 0.4195 -0.2129 0.8824
vn 0.2070 0.8882 0.4102
vn -0.2925 -0.9410 -0.1703
vn -0.4762 0.8723 -0.1113
vn 0.4434 0.1975 0.8743
vn 0.3791 -0.0000 0.9253
vn 0.1893 0.0261 0.9816
vn -0.9354 0.0000 -0.3537
vn -0.2279 0.0000 -0.9737
vn -0.0068 0.9296 0.3686
s off
f 7//1 53//1 55//1
f 28//2 55//2 61//2
f 32//3 7//3 28//3
f 14//4 20//4 19//4
f 16//5 3//5 20//5
f 5//6 46//6 43//6
f 30//7 16//7 27//7
f 3//8 26//8 20//8
f 18//9 22//9 4//9
f 27//10 14//10 31//10
f 12//9 4//9 7//9
f 32//9 10//9 12//9
f 11//11 48//11 46//11
f 54//12 13//12 57//12
f 56//13 19//13 51//13
f 91//14 47//14 45//14
f 67//15 93//15 138//15
f 41//16 91//16 45//16
f 60//17 14//17 56//17
f 90//18 50//18 44//18
f 89//19 44//19 43//19
f 42//20 87//20 41//20
f 10//9 18//9 12//9
f 23//9 36//9 24//9
f 26//21 33//21 38//21
f 4//22 59//22 53//22
f 20//23 25//23 19//23
f 17//9 24//9 18//9
f 51//24 25//24 58//24
f 52//25 31//25 60//25
f 5//26 29//26 32//26
f 1//27 31//27 2//27
f 9//28 27//28 1//28
f 5//29 28//29 11//29
f 54//30 28//30 61//30
f 63//31 35//31 62//31
f 63//31 33//31 64//31
f 24//9 34//9 22//9
f 59//32 34//32 64//32
f 25//33 38//33 37//33
f 58//34 37//34 62//34
f 119//35 68//35 147//35
f 42//36 39//36 49//36
f 52//37 40//37 65//37
f 88//38 49//38 119//38
f 40//39 66//39 65//39
f 2//20 41//20 1//20
f 43//40 6//40 5//40
f 44//41 40//41 6//41
f 1//42 45//42 9//42
f 57//15 47//15 67//15
f 45//43 13//43 9//43
f 46//44 94//44 92//44
f 43//45 92//45 89//45
f 15//15 67//15 48//15
f 39//46 66//46 49//46
f 52//37 39//37 2//37
f 66//47 69//47 70//47
f 23//34 62//34 35//34
f 21//32 64//32 33//32
f 36//31 64//31 34//31
f 38//31 62//31 37//31
f 54//48 30//48 9//48
f 6//25 60//25 29//25
f 17//49 58//49 23//49
f 53//22 21//22 3//22
f 29//50 56//50 10//50
f 48//15 138//15 94//15
f 10//51 51//51 17//51
f 11//52 57//52 15//52
f 61//53 8//53 30//53
f 55//1 3//1 8//1
f 66//54 68//54 49//54
f 120//55 69//55 50//55
f 133//56 77//56 135//56
f 135//57 106//57 142//57
f 77//58 110//58 106//58
f 84//59 98//59 86//59
f 86//60 73//60 78//60
f 126//6 75//6 123//6
f 86//61 108//61 105//61
f 104//62 73//62 98//62
f 100//9 96//9 74//9
f 84//63 105//63 109//63
f 74//9 82//9 77//9
f 110//9 80//9 107//9
f 128//64 81//64 126//64
f 134//65 83//65 79//65
f 136//66 97//66 84//66
f 127//67 91//67 125//67
f 149//15 93//15 127//15
f 121//20 91//20 87//20
f 141//68 84//68 109//68
f 130//18 90//18 124//18
f 124//69 89//69 123//69
f 87//20 122//20 121//20
f 96//9 80//9 82//9
f 114//9 101//9 102//9
f 104//70 111//70 99//70
f 140//71 74//71 133//71
f 103//72 98//72 97//72
f 102//9 95//9 96//9
f 131//73 103//73 97//73
f 132//74 109//74 72//74
f 75//75 107//75 76//75
f 109//76 71//76 72//76
f 105//77 79//77 71//77
f 106//78 75//78 81//78
f 134//79 106//79 81//79
f 144//80 113//80 114//80
f 144//80 111//80 116//80
f 112//9 102//9 100//9
f 140//81 112//81 100//81
f 103//82 116//82 104//82
f 139//83 115//83 103//83
f 119//84 151//84 129//84
f 122//85 117//85 72//85
f 132//86 118//86 76//86
f 88//87 129//87 122//87
f 148//88 118//88 146//88
f 121//20 72//20 71//20
f 76//40 123//40 75//40
f 118//41 124//41 76//41
f 71//89 125//89 121//89
f 137//15 127//15 83//15
f 83//90 125//90 79//90
f 94//91 126//91 92//91
f 92//92 123//92 89//92
f 85//15 149//15 137//15
f 117//88 148//88 146//88
f 117//86 132//86 72//86
f 148//93 152//93 130//93
f 101//83 143//83 139//83
f 99//81 145//81 140//81
f 114//80 145//80 144//80
f 116//80 143//80 144//80
f 108//94 134//94 79//94
f 76//74 141//74 132//74
f 95//95 139//95 131//95
f 99//71 133//71 73//71
f 107//96 136//96 141//96
f 128//15 138//15 149//15
f 80//97 131//97 136//97
f 81//98 137//98 134//98
f 78//99 142//99 108//99
f 73//56 135//56 78//56
f 151//100 148//100 129//100
f 152//101 120//101 130//101
f 7//1 4//1 53//1
f 28//102 7//102 55//102
f 32//9 12//9 7//9
f 14//103 16//103 20//103
f 16//104 8//104 3//104
f 5//105 11//105 46//105
f 30//106 8//106 16//106
f 3//107 21//107 26//107
f 18//9 24//9 22//9
f 27//108 16//108 14//108
f 12//9 18//9 4//9
f 32//9 29//9 10//9
f 11//109 15//109 48//109
f 54//110 9//110 13//110
f 56//111 14//111 19//111
f 91//20 93//20 47//20
f 67//15 47//15 93//15
f 41//20 87//20 91//20
f 60//112 31//112 14//112
f 90//113 120//113 50//113
f 89//9 90//9 44//9
f 42//20 88//20 87//20
f 10//9 17//9 18//9
f 23//9 35//9 36//9
f 26//114 21//114 33//114
f 4//22 22//22 59//22
f 20//115 26//115 25//115
f 17//9 23//9 24//9
f 51//116 19//116 25//116
f 52//25 2//25 31//25
f 5//117 6//117 29//117
f 1//118 27//118 31//118
f 9//119 30//119 27//119
f 5//120 32//120 28//120
f 54//121 11//121 28//121
f 63//31 36//31 35//31
f 63//31 38//31 33//31
f 24//9 36//9 34//9
f 59//32 22//32 34//32
f 25//122 26//122 38//122
f 58//34 25//34 37//34
f 119//123 49//123 68//123
f 42//85 2//85 39//85
f 52//37 6//37 40//37
f 88//87 42//87 49//87
f 40//124 50//124 66//124
f 2//20 42//20 41//20
f 43//40 44//40 6//40
f 44//125 50//125 40//125
f 1//89 41//89 45//89
f 57//15 13//15 47//15
f 45//126 47//126 13//126
f 46//127 48//127 94//127
f 43//128 46//128 92//128
f 15//15 57//15 67//15
f 39//39 65//39 66//39
f 52//37 65//37 39//37
f 66//47 50//47 69//47
f 23//34 58//34 62//34
f 21//32 59//32 64//32
f 36//31 63//31 64//31
f 38//31 63//31 62//31
f 54//30 61//30 30//30
f 6//25 52//25 60//25
f 17//129 51//129 58//129
f 53//22 59//22 21//22
f 29//130 60//130 56//130
f 48//15 67//15 138//15
f 10//131 56//131 51//131
f 11//132 54//132 57//132
f 61//133 55//133 8//133
f 55//1 53//1 3//1
f 66//54 70//54 68//54
f 120//134 150//134 69//134
f 133//56 74//56 77//56
f 135//135 77//135 106//135
f 77//9 82//9 110//9
f 84//136 97//136 98//136
f 86//137 98//137 73//137
f 126//138 81//138 75//138
f 86//139 78//139 108//139
f 104//140 99//140 73//140
f 100//9 102//9 96//9
f 84//141 86//141 105//141
f 74//9 96//9 82//9
f 110//9 82//9 80//9
f 128//109 85//109 81//109
f 134//142 137//142 83//142
f 136//143 131//143 97//143
f 127//20 93//20 91//20
f 149//15 138//15 93//15
f 121//144 125//144 91//144
f 141//145 136//145 84//145
f 130//146 120//146 90//146
f 124//9 90//9 89//9
f 87//20 88//20 122//20
f 96//9 95//9 80//9
f 114//9 113//9 101//9
f 104//147 116//147 111//147
f 140//71 100//71 74//71
f 103//148 104//148 98//148
f 102//9 101//9 95//9
f 131//149 139//149 103//149
f 132//74 141//74 109//74
f 75//150 110//150 107//150
f 109//151 105//151 71//151
f 105//152 108//152 79//152
f 106//153 110//153 75//153
f 134//154 142//154 106//154
f 144//80 143//80 113//80
f 144//80 145//80 111//80
f 112//9 114//9 102//9
f 140//81 145//81 112//81
f 103//155 115//155 116//155
f 139//83 143//83 115//83
f 119//156 147//156 151//156
f 122//157 129//157 117//157
f 132//86 146//86 118//86
f 88//158 119//158 129//158
f 148//159 130//159 118//159
f 121//20 122//20 72//20
f 76//40 124//40 123//40
f 118//160 130//160 124//160
f 71//161 79//161 125//161
f 137//15 149//15 127//15
f 83//126 127//126 125//126
f 94//127 128//127 126//127
f 92//162 126//162 123//162
f 85//15 128//15 149//15
f 117//163 129//163 148//163
f 117//86 146//86 132//86
f 148//93 153//93 152//93
f 101//83 113//83 143//83
f 99//81 111//81 145//81
f 114//80 112//80 145//80
f 116//80 115//80 143//80
f 108//154 142//154 134//154
f 76//74 107//74 141//74
f 95//164 101//164 139//164
f 99//71 140//71 133//71
f 107//50 80//50 136//50
f 128//15 94//15 138//15
f 80//165 95//165 131//165
f 81//166 85//166 137//166
f 78//167 135//167 142//167
f 73//56 133//56 135//56
f 151//100 153//100 148//100
f 152//168 150//168 120//168
